<svg width="98" height="91" viewBox="0 0 98 91" fill="none" xmlns="http://www.w3.org/2000/svg">
<g clip-path="url(#clip0_6_1705)">
<g clip-path="url(#clip1_6_1705)">
<path d="M52.6021 69.0291C52.2538 69.0291 51.9133 69.1323 51.6237 69.3258C51.3341 69.5193 51.1084 69.7944 50.9751 70.1161C50.8418 70.4379 50.807 70.792 50.8749 71.1336C50.9429 71.4752 51.1106 71.789 51.3568 72.0353C51.6031 72.2816 51.9169 72.4493 52.2585 72.5172C52.6001 72.5852 52.9542 72.5503 53.276 72.417C53.5978 72.2837 53.8728 72.058 54.0663 71.7684C54.2598 71.4788 54.3631 71.1383 54.3631 70.79C54.3628 70.3231 54.1772 69.8753 53.847 69.5451C53.5168 69.2149 53.069 69.0293 52.6021 69.0291Z" fill="#FF1414"/>
<path d="M88.8769 79.594H88.7999C90.4213 78.341 91.7435 76.7429 92.6706 74.9156C93.5977 73.0882 94.1064 71.0774 94.16 69.029C94.1563 66.1204 93.2544 63.2838 91.5777 60.9072C89.9009 58.5305 87.531 56.7297 84.7919 55.751L84.7689 55.743L69.7169 50.618L75.2529 22.188H77.2529C79.5856 22.184 81.8216 21.2556 83.4711 19.6062C85.1206 17.9567 86.049 15.7207 86.0529 13.388V5.288C86.0529 3.88687 85.4963 2.54311 84.5056 1.55236C83.5148 0.561605 82.1711 0.00500488 80.7699 0.00500488C79.3688 0.00500488 78.0251 0.561605 77.0343 1.55236C76.0435 2.54311 75.4869 3.88687 75.4869 5.288V11.627H66.6869C65.4743 11.6268 64.2985 12.044 63.3573 12.8085C62.416 13.573 61.7665 14.6382 61.518 15.8251C61.2695 17.012 61.4372 18.2483 61.9928 19.3261C62.5484 20.404 63.458 21.2578 64.5689 21.744L59.6279 47.183L34.5499 38.645C33.0753 38.1221 31.5505 37.7531 29.9999 37.544L26.9149 25.71H32.6909C34.3278 25.7082 35.9043 25.0915 37.1079 23.9821C38.3116 22.8728 39.0545 21.3517 39.1895 19.7204C39.3245 18.0891 38.8417 16.4666 37.8368 15.1745C36.8319 13.8823 35.3783 13.0149 33.7639 12.744C12.2999 9.20501 13.4229 9.264 12.2079 9.264C10.0271 9.26586 7.93626 10.134 6.39546 11.6774C4.85466 13.2208 3.99009 15.3131 3.99195 17.494C3.9938 19.6749 4.86193 21.7657 6.40536 23.3065C7.94878 24.8473 10.0411 25.7119 12.2219 25.71H15.9629L19.3319 38.61C15.2674 40.0338 11.6868 42.5749 9.00108 45.9416C6.31538 49.3082 4.63347 53.364 4.14844 57.6433C3.66342 61.9226 4.39494 66.2519 6.25902 70.1343C8.12311 74.0166 11.0442 77.2946 14.6869 79.592H9.28695C7.88581 79.592 6.54206 80.1486 5.5513 81.1394C4.56055 82.1301 4.00395 83.4739 4.00395 84.875C4.00395 86.2761 4.56055 87.6199 5.5513 88.6106C6.54206 89.6014 7.88581 90.158 9.28695 90.158H88.8769C90.2781 90.158 91.6218 89.6014 92.6126 88.6106C93.6033 87.6199 94.16 86.2761 94.16 84.875C94.16 83.4739 93.6033 82.1301 92.6126 81.1394C91.6218 80.1486 90.2781 79.592 88.8769 79.592V79.594ZM66.6889 15.144H77.2549C77.722 15.144 78.1699 14.9585 78.5002 14.6282C78.8304 14.298 79.0159 13.8501 79.0159 13.383V5.283C79.0159 4.81596 79.2015 4.36804 79.5317 4.03779C79.862 3.70754 80.3099 3.522 80.7769 3.522C81.244 3.522 81.6919 3.70754 82.0222 4.03779C82.3524 4.36804 82.5379 4.81596 82.5379 5.283V13.383C82.5364 14.7837 81.9792 16.1265 80.9888 17.1169C79.9984 18.1073 78.6556 18.6644 77.2549 18.666H66.7629C66.7069 18.666 66.6509 18.66 66.5949 18.661C66.1351 18.6393 65.7021 18.4381 65.3889 18.1008C65.0756 17.7634 64.9071 17.3167 64.9196 16.8565C64.932 16.3963 65.1244 15.9593 65.4554 15.6393C65.7864 15.3193 66.2296 15.1419 66.6899 15.145L66.6889 15.144ZM68.0719 22.188H71.6649L66.3519 49.473L62.9919 48.329L68.0719 22.188ZM12.2219 22.188C10.9754 22.1899 9.77923 21.6965 8.89649 20.8164C8.01376 19.9362 7.5168 18.7415 7.51495 17.495C7.51309 16.2485 8.00649 15.0523 8.88659 14.1696C9.7667 13.2868 10.9614 12.7899 12.2079 12.788C12.9279 12.788 12.0479 12.719 33.1849 16.219C33.9289 16.3431 34.5989 16.7424 35.0622 17.3375C35.5255 17.9327 35.7481 18.6802 35.6859 19.4319C35.6237 20.1835 35.2813 20.8843 34.7265 21.3952C34.1717 21.9061 33.4451 22.1898 32.6909 22.19L12.2219 22.188ZM26.2999 37.341C25.1031 37.3715 23.9105 37.4956 22.7329 37.712L19.5989 25.712H23.2709L26.2999 37.341ZM7.52195 60.224C7.52191 57.1222 8.26663 54.0657 9.6935 51.3116C11.1204 48.5574 13.1876 46.1861 15.7215 44.3971C18.2554 42.608 21.1818 41.4535 24.2547 41.0307C27.3275 40.6078 30.457 40.9289 33.3799 41.967L33.4029 41.975L83.6229 59.075C85.6746 59.811 87.4492 61.162 88.7047 62.9438C89.9601 64.7256 90.6353 66.8513 90.6379 69.031C90.6379 74.559 85.101 79.418 79.021 79.421L24.3829 79.437C19.7201 78.8247 15.4389 76.5382 12.3369 73.0034C9.2349 69.4687 7.52364 64.9268 7.52195 60.224ZM88.8769 86.638H9.28295C8.8159 86.638 8.36798 86.4525 8.03773 86.1222C7.70748 85.792 7.52195 85.3441 7.52195 84.877C7.52195 84.41 7.70748 83.962 8.03773 83.6318C8.36798 83.3015 8.8159 83.116 9.28295 83.116H88.8769C89.344 83.116 89.7919 83.3015 90.1222 83.6318C90.4524 83.962 90.6379 84.41 90.6379 84.877C90.6379 85.3441 90.4524 85.792 90.1222 86.1222C89.7919 86.4525 89.344 86.638 88.8769 86.638Z" fill="#FF1414"/>
<path d="M70.207 58.463C68.4665 58.463 66.7651 58.9791 65.318 59.9461C63.8708 60.913 62.7429 62.2874 62.0768 63.8954C61.4108 65.5034 61.2365 67.2728 61.5761 68.9798C61.9156 70.6868 62.7537 72.2549 63.9844 73.4856C65.2151 74.7163 66.7831 75.5544 68.4902 75.8939C70.1972 76.2335 71.9666 76.0592 73.5746 75.3932C75.1826 74.7271 76.557 73.5992 77.5239 72.152C78.4909 70.7049 79.007 69.0035 79.007 67.263C79.003 64.9303 78.0746 62.6943 76.4251 61.0449C74.7757 59.3954 72.5397 58.467 70.207 58.463ZM70.207 72.551C69.1621 72.551 68.1407 72.2412 67.2719 71.6607C66.4031 71.0802 65.726 70.2551 65.3261 69.2897C64.9263 68.3244 64.8216 67.2622 65.0255 66.2374C65.2293 65.2126 65.7325 64.2712 66.4713 63.5324C67.2102 62.7935 68.1515 62.2904 69.1763 62.0865C70.2011 61.8827 71.2634 61.9873 72.2287 62.3871C73.194 62.787 74.0191 63.4642 74.5996 64.3329C75.1801 65.2017 75.49 66.2231 75.49 67.268C75.4884 68.6687 74.9313 70.0115 73.9409 71.0019C72.9505 71.9923 71.6076 72.5494 70.207 72.551Z" fill="#FF1414"/>
<path d="M45.559 69.029H38.188L36.766 67.607C38.6318 65.1117 39.4832 62.0022 39.1489 58.9045C38.8145 55.8067 37.3192 52.9506 34.9639 50.9109C32.6086 48.8712 29.5682 47.7992 26.4544 47.9109C23.3407 48.0225 20.3848 49.3094 18.1816 51.5126C15.9785 53.7158 14.6916 56.6716 14.5799 59.7854C14.4683 62.8991 15.5402 65.9396 17.5799 68.2949C19.6196 70.6502 22.4758 72.1455 25.5735 72.4798C28.6713 72.8142 31.7807 71.9628 34.276 70.097L36.214 72.035C36.5442 72.3652 36.992 72.5509 37.459 72.551H45.559C46.0261 72.551 46.474 72.3654 46.8042 72.0352C47.1345 71.7049 47.32 71.257 47.32 70.79C47.32 70.3229 47.1345 69.875 46.8042 69.5448C46.474 69.2145 46.0261 69.029 45.559 69.029ZM34.24 65.081L28.14 58.981C27.8078 58.6608 27.3632 58.4839 26.9018 58.4882C26.4404 58.4925 25.9992 58.6776 25.6729 59.0039C25.3467 59.3301 25.1615 59.7714 25.1572 60.2327C25.1529 60.6941 25.3299 61.1387 25.65 61.471L31.75 67.571C29.9307 68.7733 27.7297 69.2572 25.5739 68.929C23.418 68.6008 21.4608 67.4838 20.0816 65.7946C18.7025 64.1053 17.9997 61.9642 18.1095 59.7863C18.2192 57.6083 19.1338 55.5487 20.6758 54.0067C22.2178 52.4647 24.2774 51.5502 26.4553 51.4404C28.6333 51.3306 30.7744 52.0334 32.4636 53.4126C34.1529 54.7917 35.2699 56.7489 35.5981 58.9048C35.9263 61.0607 35.4423 63.2616 34.24 65.081Z" fill="#FF1414"/>
</g>
</g>
<defs>
<clipPath id="clip0_6_1705">
<rect width="97.801" height="90.16" fill="white"/>
</clipPath>
<clipPath id="clip1_6_1705">
<rect width="90.16" height="90.16" fill="white" transform="translate(4)"/>
</clipPath>
</defs>
</svg>
